<svg xmlns="http://www.w3.org/2000/svg" width="784" height="174" viewBox="0 0 784 174" role="img" aria-label="contribution heatmap">
<style>
    text { font: 10px "SFMono-Regular", Consolas, "Liberation Mono", Menlo, monospace; fill: #adbac7; }
    .stat { font-size: 11px; fill: #f0f6fc; }
    .l0{fill:#161b22}.l1{fill:#0e4429}.l2{fill:#006d32}.l3{fill:#26a641}.l4{fill:#39d353}
    
    .c { opacity: 0; animation: pop 0.3s ease-out forwards; }
    @keyframes pop { from { opacity: 0; } to { opacity: 1; } }
    </style>
<text x="32" y="20">Jul</text>
<text x="74" y="20">Aug</text>
<text x="144" y="20">Sep</text>
<text x="200" y="20">Oct</text>
<text x="256" y="20">Nov</text>
<text x="326" y="20">Dec</text>
<text x="382" y="20">Jan</text>
<text x="438" y="20">Feb</text>
<text x="494" y="20">Mar</text>
<text x="564" y="20">Apr</text>
<text x="620" y="20">May</text>
<text x="690" y="20">Jun</text>
<text x="746" y="20">Jul</text>
<text x="0" y="53">Mon</text>
<text x="0" y="81">Wed</text>
<text x="0" y="109">Fri</text>
<rect x="32" y="30" width="11" height="11" rx="2" class="c l1" style="animation-delay:0.000s"/>
<rect x="32" y="44" width="11" height="11" rx="2" class="c l0" style="animation-delay:0.004s"/>
<rect x="32" y="58" width="11" height="11" rx="2" class="c l0" style="animation-delay:0.008s"/>
<rect x="32" y="72" width="11" height="11" rx="2" class="c l0" style="animation-delay:0.012s"/>
<rect x="32" y="86" width="11" height="11" rx="2" class="c l0" style="animation-delay:0.016s"/>
<rect x="32" y="100" width="11" height="11" rx="2" class="c l0" style="animation-delay:0.020s"/>
<rect x="32" y="114" width="11" height="11" rx="2" class="c l0" style="animation-delay:0.024s"/>
<rect x="46" y="30" width="11" height="11" rx="2" class="c l0" style="animation-delay:0.018s"/>
<rect x="46" y="44" width="11" height="11" rx="2" class="c l0" style="animation-delay:0.022s"/>
<rect x="46" y="58" width="11" height="11" rx="2" class="c l0" style="animation-delay:0.026s"/>
<rect x="46" y="72" width="11" height="11" rx="2" class="c l0" style="animation-delay:0.030s"/>
<rect x="46" y="86" width="11" height="11" rx="2" class="c l0" style="animation-delay:0.034s"/>
<rect x="46" y="100" width="11" height="11" rx="2" class="c l0" style="animation-delay:0.038s"/>
<rect x="46" y="114" width="11" height="11" rx="2" class="c l0" style="animation-delay:0.042s"/>
<rect x="60" y="30" width="11" height="11" rx="2" class="c l0" style="animation-delay:0.036s"/>
<rect x="60" y="44" width="11" height="11" rx="2" class="c l0" style="animation-delay:0.040s"/>
<rect x="60" y="58" width="11" height="11" rx="2" class="c l1" style="animation-delay:0.044s"/>
<rect x="60" y="72" width="11" height="11" rx="2" class="c l1" style="animation-delay:0.048s"/>
<rect x="60" y="86" width="11" height="11" rx="2" class="c l0" style="animation-delay:0.052s"/>
<rect x="60" y="100" width="11" height="11" rx="2" class="c l0" style="animation-delay:0.056s"/>
<rect x="60" y="114" width="11" height="11" rx="2" class="c l0" style="animation-delay:0.060s"/>
<rect x="74" y="30" width="11" height="11" rx="2" class="c l0" style="animation-delay:0.054s"/>
<rect x="74" y="44" width="11" height="11" rx="2" class="c l0" style="animation-delay:0.058s"/>
<rect x="74" y="58" width="11" height="11" rx="2" class="c l0" style="animation-delay:0.062s"/>
<rect x="74" y="72" width="11" height="11" rx="2" class="c l0" style="animation-delay:0.066s"/>
<rect x="74" y="86" width="11" height="11" rx="2" class="c l0" style="animation-delay:0.070s"/>
<rect x="74" y="100" width="11" height="11" rx="2" class="c l0" style="animation-delay:0.074s"/>
<rect x="74" y="114" width="11" height="11" rx="2" class="c l0" style="animation-delay:0.078s"/>
<rect x="88" y="30" width="11" height="11" rx="2" class="c l0" style="animation-delay:0.072s"/>
<rect x="88" y="44" width="11" height="11" rx="2" class="c l0" style="animation-delay:0.076s"/>
<rect x="88" y="58" width="11" height="11" rx="2" class="c l0" style="animation-delay:0.080s"/>
<rect x="88" y="72" width="11" height="11" rx="2" class="c l0" style="animation-delay:0.084s"/>
<rect x="88" y="86" width="11" height="11" rx="2" class="c l0" style="animation-delay:0.088s"/>
<rect x="88" y="100" width="11" height="11" rx="2" class="c l0" style="animation-delay:0.092s"/>
<rect x="88" y="114" width="11" height="11" rx="2" class="c l0" style="animation-delay:0.096s"/>
<rect x="102" y="30" width="11" height="11" rx="2" class="c l0" style="animation-delay:0.090s"/>
<rect x="102" y="44" width="11" height="11" rx="2" class="c l0" style="animation-delay:0.094s"/>
<rect x="102" y="58" width="11" height="11" rx="2" class="c l0" style="animation-delay:0.098s"/>
<rect x="102" y="72" width="11" height="11" rx="2" class="c l0" style="animation-delay:0.102s"/>
<rect x="102" y="86" width="11" height="11" rx="2" class="c l0" style="animation-delay:0.106s"/>
<rect x="102" y="100" width="11" height="11" rx="2" class="c l0" style="animation-delay:0.110s"/>
<rect x="102" y="114" width="11" height="11" rx="2" class="c l0" style="animation-delay:0.114s"/>
<rect x="116" y="30" width="11" height="11" rx="2" class="c l0" style="animation-delay:0.108s"/>
<rect x="116" y="44" width="11" height="11" rx="2" class="c l0" style="animation-delay:0.112s"/>
<rect x="116" y="58" width="11" height="11" rx="2" class="c l0" style="animation-delay:0.116s"/>
<rect x="116" y="72" width="11" height="11" rx="2" class="c l0" style="animation-delay:0.120s"/>
<rect x="116" y="86" width="11" height="11" rx="2" class="c l0" style="animation-delay:0.124s"/>
<rect x="116" y="100" width="11" height="11" rx="2" class="c l0" style="animation-delay:0.128s"/>
<rect x="116" y="114" width="11" height="11" rx="2" class="c l0" style="animation-delay:0.132s"/>
<rect x="130" y="30" width="11" height="11" rx="2" class="c l0" style="animation-delay:0.126s"/>
<rect x="130" y="44" width="11" height="11" rx="2" class="c l0" style="animation-delay:0.130s"/>
<rect x="130" y="58" width="11" height="11" rx="2" class="c l0" style="animation-delay:0.134s"/>
<rect x="130" y="72" width="11" height="11" rx="2" class="c l0" style="animation-delay:0.138s"/>
<rect x="130" y="86" width="11" height="11" rx="2" class="c l0" style="animation-delay:0.142s"/>
<rect x="130" y="100" width="11" height="11" rx="2" class="c l0" style="animation-delay:0.146s"/>
<rect x="130" y="114" width="11" height="11" rx="2" class="c l0" style="animation-delay:0.150s"/>
<rect x="144" y="30" width="11" height="11" rx="2" class="c l0" style="animation-delay:0.144s"/>
<rect x="144" y="44" width="11" height="11" rx="2" class="c l0" style="animation-delay:0.148s"/>
<rect x="144" y="58" width="11" height="11" rx="2" class="c l0" style="animation-delay:0.152s"/>
<rect x="144" y="72" width="11" height="11" rx="2" class="c l0" style="animation-delay:0.156s"/>
<rect x="144" y="86" width="11" height="11" rx="2" class="c l0" style="animation-delay:0.160s"/>
<rect x="144" y="100" width="11" height="11" rx="2" class="c l0" style="animation-delay:0.164s"/>
<rect x="144" y="114" width="11" height="11" rx="2" class="c l0" style="animation-delay:0.168s"/>
<rect x="158" y="30" width="11" height="11" rx="2" class="c l0" style="animation-delay:0.162s"/>
<rect x="158" y="44" width="11" height="11" rx="2" class="c l0" style="animation-delay:0.166s"/>
<rect x="158" y="58" width="11" height="11" rx="2" class="c l0" style="animation-delay:0.170s"/>
<rect x="158" y="72" width="11" height="11" rx="2" class="c l0" style="animation-delay:0.174s"/>
<rect x="158" y="86" width="11" height="11" rx="2" class="c l0" style="animation-delay:0.178s"/>
<rect x="158" y="100" width="11" height="11" rx="2" class="c l0" style="animation-delay:0.182s"/>
<rect x="158" y="114" width="11" height="11" rx="2" class="c l0" style="animation-delay:0.186s"/>
<rect x="172" y="30" width="11" height="11" rx="2" class="c l0" style="animation-delay:0.180s"/>
<rect x="172" y="44" width="11" height="11" rx="2" class="c l0" style="animation-delay:0.184s"/>
<rect x="172" y="58" width="11" height="11" rx="2" class="c l0" style="animation-delay:0.188s"/>
<rect x="172" y="72" width="11" height="11" rx="2" class="c l0" style="animation-delay:0.192s"/>
<rect x="172" y="86" width="11" height="11" rx="2" class="c l0" style="animation-delay:0.196s"/>
<rect x="172" y="100" width="11" height="11" rx="2" class="c l0" style="animation-delay:0.200s"/>
<rect x="172" y="114" width="11" height="11" rx="2" class="c l0" style="animation-delay:0.204s"/>
<rect x="186" y="30" width="11" height="11" rx="2" class="c l0" style="animation-delay:0.198s"/>
<rect x="186" y="44" width="11" height="11" rx="2" class="c l0" style="animation-delay:0.202s"/>
<rect x="186" y="58" width="11" height="11" rx="2" class="c l0" style="animation-delay:0.206s"/>
<rect x="186" y="72" width="11" height="11" rx="2" class="c l0" style="animation-delay:0.210s"/>
<rect x="186" y="86" width="11" height="11" rx="2" class="c l0" style="animation-delay:0.214s"/>
<rect x="186" y="100" width="11" height="11" rx="2" class="c l0" style="animation-delay:0.218s"/>
<rect x="186" y="114" width="11" height="11" rx="2" class="c l0" style="animation-delay:0.222s"/>
<rect x="200" y="30" width="11" height="11" rx="2" class="c l0" style="animation-delay:0.216s"/>
<rect x="200" y="44" width="11" height="11" rx="2" class="c l0" style="animation-delay:0.220s"/>
<rect x="200" y="58" width="11" height="11" rx="2" class="c l0" style="animation-delay:0.224s"/>
<rect x="200" y="72" width="11" height="11" rx="2" class="c l0" style="animation-delay:0.228s"/>
<rect x="200" y="86" width="11" height="11" rx="2" class="c l0" style="animation-delay:0.232s"/>
<rect x="200" y="100" width="11" height="11" rx="2" class="c l0" style="animation-delay:0.236s"/>
<rect x="200" y="114" width="11" height="11" rx="2" class="c l0" style="animation-delay:0.240s"/>
<rect x="214" y="30" width="11" height="11" rx="2" class="c l0" style="animation-delay:0.234s"/>
<rect x="214" y="44" width="11" height="11" rx="2" class="c l0" style="animation-delay:0.238s"/>
<rect x="214" y="58" width="11" height="11" rx="2" class="c l0" style="animation-delay:0.242s"/>
<rect x="214" y="72" width="11" height="11" rx="2" class="c l0" style="animation-delay:0.246s"/>
<rect x="214" y="86" width="11" height="11" rx="2" class="c l0" style="animation-delay:0.250s"/>
<rect x="214" y="100" width="11" height="11" rx="2" class="c l0" style="animation-delay:0.254s"/>
<rect x="214" y="114" width="11" height="11" rx="2" class="c l0" style="animation-delay:0.258s"/>
<rect x="228" y="30" width="11" height="11" rx="2" class="c l0" style="animation-delay:0.252s"/>
<rect x="228" y="44" width="11" height="11" rx="2" class="c l0" style="animation-delay:0.256s"/>
<rect x="228" y="58" width="11" height="11" rx="2" class="c l0" style="animation-delay:0.260s"/>
<rect x="228" y="72" width="11" height="11" rx="2" class="c l0" style="animation-delay:0.264s"/>
<rect x="228" y="86" width="11" height="11" rx="2" class="c l0" style="animation-delay:0.268s"/>
<rect x="228" y="100" width="11" height="11" rx="2" class="c l0" style="animation-delay:0.272s"/>
<rect x="228" y="114" width="11" height="11" rx="2" class="c l0" style="animation-delay:0.276s"/>
<rect x="242" y="30" width="11" height="11" rx="2" class="c l0" style="animation-delay:0.270s"/>
<rect x="242" y="44" width="11" height="11" rx="2" class="c l0" style="animation-delay:0.274s"/>
<rect x="242" y="58" width="11" height="11" rx="2" class="c l0" style="animation-delay:0.278s"/>
<rect x="242" y="72" width="11" height="11" rx="2" class="c l0" style="animation-delay:0.282s"/>
<rect x="242" y="86" width="11" height="11" rx="2" class="c l0" style="animation-delay:0.286s"/>
<rect x="242" y="100" width="11" height="11" rx="2" class="c l0" style="animation-delay:0.290s"/>
<rect x="242" y="114" width="11" height="11" rx="2" class="c l0" style="animation-delay:0.294s"/>
<rect x="256" y="30" width="11" height="11" rx="2" class="c l0" style="animation-delay:0.288s"/>
<rect x="256" y="44" width="11" height="11" rx="2" class="c l0" style="animation-delay:0.292s"/>
<rect x="256" y="58" width="11" height="11" rx="2" class="c l0" style="animation-delay:0.296s"/>
<rect x="256" y="72" width="11" height="11" rx="2" class="c l0" style="animation-delay:0.300s"/>
<rect x="256" y="86" width="11" height="11" rx="2" class="c l0" style="animation-delay:0.304s"/>
<rect x="256" y="100" width="11" height="11" rx="2" class="c l0" style="animation-delay:0.308s"/>
<rect x="256" y="114" width="11" height="11" rx="2" class="c l0" style="animation-delay:0.312s"/>
<rect x="270" y="30" width="11" height="11" rx="2" class="c l0" style="animation-delay:0.306s"/>
<rect x="270" y="44" width="11" height="11" rx="2" class="c l0" style="animation-delay:0.310s"/>
<rect x="270" y="58" width="11" height="11" rx="2" class="c l0" style="animation-delay:0.314s"/>
<rect x="270" y="72" width="11" height="11" rx="2" class="c l0" style="animation-delay:0.318s"/>
<rect x="270" y="86" width="11" height="11" rx="2" class="c l0" style="animation-delay:0.322s"/>
<rect x="270" y="100" width="11" height="11" rx="2" class="c l0" style="animation-delay:0.326s"/>
<rect x="270" y="114" width="11" height="11" rx="2" class="c l0" style="animation-delay:0.330s"/>
<rect x="284" y="30" width="11" height="11" rx="2" class="c l0" style="animation-delay:0.324s"/>
<rect x="284" y="44" width="11" height="11" rx="2" class="c l0" style="animation-delay:0.328s"/>
<rect x="284" y="58" width="11" height="11" rx="2" class="c l0" style="animation-delay:0.332s"/>
<rect x="284" y="72" width="11" height="11" rx="2" class="c l0" style="animation-delay:0.336s"/>
<rect x="284" y="86" width="11" height="11" rx="2" class="c l0" style="animation-delay:0.340s"/>
<rect x="284" y="100" width="11" height="11" rx="2" class="c l0" style="animation-delay:0.344s"/>
<rect x="284" y="114" width="11" height="11" rx="2" class="c l0" style="animation-delay:0.348s"/>
<rect x="298" y="30" width="11" height="11" rx="2" class="c l0" style="animation-delay:0.342s"/>
<rect x="298" y="44" width="11" height="11" rx="2" class="c l0" style="animation-delay:0.346s"/>
<rect x="298" y="58" width="11" height="11" rx="2" class="c l0" style="animation-delay:0.350s"/>
<rect x="298" y="72" width="11" height="11" rx="2" class="c l0" style="animation-delay:0.354s"/>
<rect x="298" y="86" width="11" height="11" rx="2" class="c l0" style="animation-delay:0.358s"/>
<rect x="298" y="100" width="11" height="11" rx="2" class="c l0" style="animation-delay:0.362s"/>
<rect x="298" y="114" width="11" height="11" rx="2" class="c l0" style="animation-delay:0.366s"/>
<rect x="312" y="30" width="11" height="11" rx="2" class="c l0" style="animation-delay:0.360s"/>
<rect x="312" y="44" width="11" height="11" rx="2" class="c l0" style="animation-delay:0.364s"/>
<rect x="312" y="58" width="11" height="11" rx="2" class="c l0" style="animation-delay:0.368s"/>
<rect x="312" y="72" width="11" height="11" rx="2" class="c l0" style="animation-delay:0.372s"/>
<rect x="312" y="86" width="11" height="11" rx="2" class="c l0" style="animation-delay:0.376s"/>
<rect x="312" y="100" width="11" height="11" rx="2" class="c l0" style="animation-delay:0.380s"/>
<rect x="312" y="114" width="11" height="11" rx="2" class="c l0" style="animation-delay:0.384s"/>
<rect x="326" y="30" width="11" height="11" rx="2" class="c l0" style="animation-delay:0.378s"/>
<rect x="326" y="44" width="11" height="11" rx="2" class="c l0" style="animation-delay:0.382s"/>
<rect x="326" y="58" width="11" height="11" rx="2" class="c l0" style="animation-delay:0.386s"/>
<rect x="326" y="72" width="11" height="11" rx="2" class="c l0" style="animation-delay:0.390s"/>
<rect x="326" y="86" width="11" height="11" rx="2" class="c l0" style="animation-delay:0.394s"/>
<rect x="326" y="100" width="11" height="11" rx="2" class="c l0" style="animation-delay:0.398s"/>
<rect x="326" y="114" width="11" height="11" rx="2" class="c l0" style="animation-delay:0.402s"/>
<rect x="340" y="30" width="11" height="11" rx="2" class="c l0" style="animation-delay:0.396s"/>
<rect x="340" y="44" width="11" height="11" rx="2" class="c l0" style="animation-delay:0.400s"/>
<rect x="340" y="58" width="11" height="11" rx="2" class="c l0" style="animation-delay:0.404s"/>
<rect x="340" y="72" width="11" height="11" rx="2" class="c l0" style="animation-delay:0.408s"/>
<rect x="340" y="86" width="11" height="11" rx="2" class="c l0" style="animation-delay:0.412s"/>
<rect x="340" y="100" width="11" height="11" rx="2" class="c l0" style="animation-delay:0.416s"/>
<rect x="340" y="114" width="11" height="11" rx="2" class="c l0" style="animation-delay:0.420s"/>
<rect x="354" y="30" width="11" height="11" rx="2" class="c l0" style="animation-delay:0.414s"/>
<rect x="354" y="44" width="11" height="11" rx="2" class="c l0" style="animation-delay:0.418s"/>
<rect x="354" y="58" width="11" height="11" rx="2" class="c l0" style="animation-delay:0.422s"/>
<rect x="354" y="72" width="11" height="11" rx="2" class="c l0" style="animation-delay:0.426s"/>
<rect x="354" y="86" width="11" height="11" rx="2" class="c l0" style="animation-delay:0.430s"/>
<rect x="354" y="100" width="11" height="11" rx="2" class="c l0" style="animation-delay:0.434s"/>
<rect x="354" y="114" width="11" height="11" rx="2" class="c l1" style="animation-delay:0.438s"/>
<rect x="368" y="30" width="11" height="11" rx="2" class="c l2" style="animation-delay:0.432s"/>
<rect x="368" y="44" width="11" height="11" rx="2" class="c l0" style="animation-delay:0.436s"/>
<rect x="368" y="58" width="11" height="11" rx="2" class="c l0" style="animation-delay:0.440s"/>
<rect x="368" y="72" width="11" height="11" rx="2" class="c l0" style="animation-delay:0.444s"/>
<rect x="368" y="86" width="11" height="11" rx="2" class="c l0" style="animation-delay:0.448s"/>
<rect x="368" y="100" width="11" height="11" rx="2" class="c l0" style="animation-delay:0.452s"/>
<rect x="368" y="114" width="11" height="11" rx="2" class="c l0" style="animation-delay:0.456s"/>
<rect x="382" y="30" width="11" height="11" rx="2" class="c l0" style="animation-delay:0.450s"/>
<rect x="382" y="44" width="11" height="11" rx="2" class="c l0" style="animation-delay:0.454s"/>
<rect x="382" y="58" width="11" height="11" rx="2" class="c l0" style="animation-delay:0.458s"/>
<rect x="382" y="72" width="11" height="11" rx="2" class="c l0" style="animation-delay:0.462s"/>
<rect x="382" y="86" width="11" height="11" rx="2" class="c l0" style="animation-delay:0.466s"/>
<rect x="382" y="100" width="11" height="11" rx="2" class="c l0" style="animation-delay:0.470s"/>
<rect x="382" y="114" width="11" height="11" rx="2" class="c l0" style="animation-delay:0.474s"/>
<rect x="396" y="30" width="11" height="11" rx="2" class="c l0" style="animation-delay:0.468s"/>
<rect x="396" y="44" width="11" height="11" rx="2" class="c l0" style="animation-delay:0.472s"/>
<rect x="396" y="58" width="11" height="11" rx="2" class="c l0" style="animation-delay:0.476s"/>
<rect x="396" y="72" width="11" height="11" rx="2" class="c l0" style="animation-delay:0.480s"/>
<rect x="396" y="86" width="11" height="11" rx="2" class="c l0" style="animation-delay:0.484s"/>
<rect x="396" y="100" width="11" height="11" rx="2" class="c l0" style="animation-delay:0.488s"/>
<rect x="396" y="114" width="11" height="11" rx="2" class="c l0" style="animation-delay:0.492s"/>
<rect x="410" y="30" width="11" height="11" rx="2" class="c l0" style="animation-delay:0.486s"/>
<rect x="410" y="44" width="11" height="11" rx="2" class="c l0" style="animation-delay:0.490s"/>
<rect x="410" y="58" width="11" height="11" rx="2" class="c l0" style="animation-delay:0.494s"/>
<rect x="410" y="72" width="11" height="11" rx="2" class="c l0" style="animation-delay:0.498s"/>
<rect x="410" y="86" width="11" height="11" rx="2" class="c l0" style="animation-delay:0.502s"/>
<rect x="410" y="100" width="11" height="11" rx="2" class="c l0" style="animation-delay:0.506s"/>
<rect x="410" y="114" width="11" height="11" rx="2" class="c l0" style="animation-delay:0.510s"/>
<rect x="424" y="30" width="11" height="11" rx="2" class="c l0" style="animation-delay:0.504s"/>
<rect x="424" y="44" width="11" height="11" rx="2" class="c l0" style="animation-delay:0.508s"/>
<rect x="424" y="58" width="11" height="11" rx="2" class="c l0" style="animation-delay:0.512s"/>
<rect x="424" y="72" width="11" height="11" rx="2" class="c l0" style="animation-delay:0.516s"/>
<rect x="424" y="86" width="11" height="11" rx="2" class="c l0" style="animation-delay:0.520s"/>
<rect x="424" y="100" width="11" height="11" rx="2" class="c l0" style="animation-delay:0.524s"/>
<rect x="424" y="114" width="11" height="11" rx="2" class="c l0" style="animation-delay:0.528s"/>
<rect x="438" y="30" width="11" height="11" rx="2" class="c l0" style="animation-delay:0.522s"/>
<rect x="438" y="44" width="11" height="11" rx="2" class="c l0" style="animation-delay:0.526s"/>
<rect x="438" y="58" width="11" height="11" rx="2" class="c l0" style="animation-delay:0.530s"/>
<rect x="438" y="72" width="11" height="11" rx="2" class="c l0" style="animation-delay:0.534s"/>
<rect x="438" y="86" width="11" height="11" rx="2" class="c l0" style="animation-delay:0.538s"/>
<rect x="438" y="100" width="11" height="11" rx="2" class="c l0" style="animation-delay:0.542s"/>
<rect x="438" y="114" width="11" height="11" rx="2" class="c l0" style="animation-delay:0.546s"/>
<rect x="452" y="30" width="11" height="11" rx="2" class="c l0" style="animation-delay:0.540s"/>
<rect x="452" y="44" width="11" height="11" rx="2" class="c l0" style="animation-delay:0.544s"/>
<rect x="452" y="58" width="11" height="11" rx="2" class="c l1" style="animation-delay:0.548s"/>
<rect x="452" y="72" width="11" height="11" rx="2" class="c l0" style="animation-delay:0.552s"/>
<rect x="452" y="86" width="11" height="11" rx="2" class="c l0" style="animation-delay:0.556s"/>
<rect x="452" y="100" width="11" height="11" rx="2" class="c l0" style="animation-delay:0.560s"/>
<rect x="452" y="114" width="11" height="11" rx="2" class="c l0" style="animation-delay:0.564s"/>
<rect x="466" y="30" width="11" height="11" rx="2" class="c l0" style="animation-delay:0.558s"/>
<rect x="466" y="44" width="11" height="11" rx="2" class="c l0" style="animation-delay:0.562s"/>
<rect x="466" y="58" width="11" height="11" rx="2" class="c l0" style="animation-delay:0.566s"/>
<rect x="466" y="72" width="11" height="11" rx="2" class="c l0" style="animation-delay:0.570s"/>
<rect x="466" y="86" width="11" height="11" rx="2" class="c l0" style="animation-delay:0.574s"/>
<rect x="466" y="100" width="11" height="11" rx="2" class="c l0" style="animation-delay:0.578s"/>
<rect x="466" y="114" width="11" height="11" rx="2" class="c l0" style="animation-delay:0.582s"/>
<rect x="480" y="30" width="11" height="11" rx="2" class="c l0" style="animation-delay:0.576s"/>
<rect x="480" y="44" width="11" height="11" rx="2" class="c l0" style="animation-delay:0.580s"/>
<rect x="480" y="58" width="11" height="11" rx="2" class="c l0" style="animation-delay:0.584s"/>
<rect x="480" y="72" width="11" height="11" rx="2" class="c l0" style="animation-delay:0.588s"/>
<rect x="480" y="86" width="11" height="11" rx="2" class="c l0" style="animation-delay:0.592s"/>
<rect x="480" y="100" width="11" height="11" rx="2" class="c l0" style="animation-delay:0.596s"/>
<rect x="480" y="114" width="11" height="11" rx="2" class="c l0" style="animation-delay:0.600s"/>
<rect x="494" y="30" width="11" height="11" rx="2" class="c l0" style="animation-delay:0.594s"/>
<rect x="494" y="44" width="11" height="11" rx="2" class="c l0" style="animation-delay:0.598s"/>
<rect x="494" y="58" width="11" height="11" rx="2" class="c l0" style="animation-delay:0.602s"/>
<rect x="494" y="72" width="11" height="11" rx="2" class="c l0" style="animation-delay:0.606s"/>
<rect x="494" y="86" width="11" height="11" rx="2" class="c l0" style="animation-delay:0.610s"/>
<rect x="494" y="100" width="11" height="11" rx="2" class="c l0" style="animation-delay:0.614s"/>
<rect x="494" y="114" width="11" height="11" rx="2" class="c l0" style="animation-delay:0.618s"/>
<rect x="508" y="30" width="11" height="11" rx="2" class="c l0" style="animation-delay:0.612s"/>
<rect x="508" y="44" width="11" height="11" rx="2" class="c l0" style="animation-delay:0.616s"/>
<rect x="508" y="58" width="11" height="11" rx="2" class="c l0" style="animation-delay:0.620s"/>
<rect x="508" y="72" width="11" height="11" rx="2" class="c l0" style="animation-delay:0.624s"/>
<rect x="508" y="86" width="11" height="11" rx="2" class="c l0" style="animation-delay:0.628s"/>
<rect x="508" y="100" width="11" height="11" rx="2" class="c l0" style="animation-delay:0.632s"/>
<rect x="508" y="114" width="11" height="11" rx="2" class="c l0" style="animation-delay:0.636s"/>
<rect x="522" y="30" width="11" height="11" rx="2" class="c l0" style="animation-delay:0.630s"/>
<rect x="522" y="44" width="11" height="11" rx="2" class="c l0" style="animation-delay:0.634s"/>
<rect x="522" y="58" width="11" height="11" rx="2" class="c l0" style="animation-delay:0.638s"/>
<rect x="522" y="72" width="11" height="11" rx="2" class="c l0" style="animation-delay:0.642s"/>
<rect x="522" y="86" width="11" height="11" rx="2" class="c l0" style="animation-delay:0.646s"/>
<rect x="522" y="100" width="11" height="11" rx="2" class="c l0" style="animation-delay:0.650s"/>
<rect x="522" y="114" width="11" height="11" rx="2" class="c l0" style="animation-delay:0.654s"/>
<rect x="536" y="30" width="11" height="11" rx="2" class="c l0" style="animation-delay:0.648s"/>
<rect x="536" y="44" width="11" height="11" rx="2" class="c l0" style="animation-delay:0.652s"/>
<rect x="536" y="58" width="11" height="11" rx="2" class="c l0" style="animation-delay:0.656s"/>
<rect x="536" y="72" width="11" height="11" rx="2" class="c l0" style="animation-delay:0.660s"/>
<rect x="536" y="86" width="11" height="11" rx="2" class="c l0" style="animation-delay:0.664s"/>
<rect x="536" y="100" width="11" height="11" rx="2" class="c l0" style="animation-delay:0.668s"/>
<rect x="536" y="114" width="11" height="11" rx="2" class="c l0" style="animation-delay:0.672s"/>
<rect x="550" y="30" width="11" height="11" rx="2" class="c l0" style="animation-delay:0.666s"/>
<rect x="550" y="44" width="11" height="11" rx="2" class="c l0" style="animation-delay:0.670s"/>
<rect x="550" y="58" width="11" height="11" rx="2" class="c l0" style="animation-delay:0.674s"/>
<rect x="550" y="72" width="11" height="11" rx="2" class="c l0" style="animation-delay:0.678s"/>
<rect x="550" y="86" width="11" height="11" rx="2" class="c l0" style="animation-delay:0.682s"/>
<rect x="550" y="100" width="11" height="11" rx="2" class="c l0" style="animation-delay:0.686s"/>
<rect x="550" y="114" width="11" height="11" rx="2" class="c l0" style="animation-delay:0.690s"/>
<rect x="564" y="30" width="11" height="11" rx="2" class="c l0" style="animation-delay:0.684s"/>
<rect x="564" y="44" width="11" height="11" rx="2" class="c l0" style="animation-delay:0.688s"/>
<rect x="564" y="58" width="11" height="11" rx="2" class="c l0" style="animation-delay:0.692s"/>
<rect x="564" y="72" width="11" height="11" rx="2" class="c l0" style="animation-delay:0.696s"/>
<rect x="564" y="86" width="11" height="11" rx="2" class="c l0" style="animation-delay:0.700s"/>
<rect x="564" y="100" width="11" height="11" rx="2" class="c l0" style="animation-delay:0.704s"/>
<rect x="564" y="114" width="11" height="11" rx="2" class="c l0" style="animation-delay:0.708s"/>
<rect x="578" y="30" width="11" height="11" rx="2" class="c l0" style="animation-delay:0.702s"/>
<rect x="578" y="44" width="11" height="11" rx="2" class="c l0" style="animation-delay:0.706s"/>
<rect x="578" y="58" width="11" height="11" rx="2" class="c l0" style="animation-delay:0.710s"/>
<rect x="578" y="72" width="11" height="11" rx="2" class="c l0" style="animation-delay:0.714s"/>
<rect x="578" y="86" width="11" height="11" rx="2" class="c l0" style="animation-delay:0.718s"/>
<rect x="578" y="100" width="11" height="11" rx="2" class="c l0" style="animation-delay:0.722s"/>
<rect x="578" y="114" width="11" height="11" rx="2" class="c l0" style="animation-delay:0.726s"/>
<rect x="592" y="30" width="11" height="11" rx="2" class="c l0" style="animation-delay:0.720s"/>
<rect x="592" y="44" width="11" height="11" rx="2" class="c l0" style="animation-delay:0.724s"/>
<rect x="592" y="58" width="11" height="11" rx="2" class="c l0" style="animation-delay:0.728s"/>
<rect x="592" y="72" width="11" height="11" rx="2" class="c l0" style="animation-delay:0.732s"/>
<rect x="592" y="86" width="11" height="11" rx="2" class="c l0" style="animation-delay:0.736s"/>
<rect x="592" y="100" width="11" height="11" rx="2" class="c l0" style="animation-delay:0.740s"/>
<rect x="592" y="114" width="11" height="11" rx="2" class="c l0" style="animation-delay:0.744s"/>
<rect x="606" y="30" width="11" height="11" rx="2" class="c l0" style="animation-delay:0.738s"/>
<rect x="606" y="44" width="11" height="11" rx="2" class="c l0" style="animation-delay:0.742s"/>
<rect x="606" y="58" width="11" height="11" rx="2" class="c l0" style="animation-delay:0.746s"/>
<rect x="606" y="72" width="11" height="11" rx="2" class="c l0" style="animation-delay:0.750s"/>
<rect x="606" y="86" width="11" height="11" rx="2" class="c l0" style="animation-delay:0.754s"/>
<rect x="606" y="100" width="11" height="11" rx="2" class="c l0" style="animation-delay:0.758s"/>
<rect x="606" y="114" width="11" height="11" rx="2" class="c l0" style="animation-delay:0.762s"/>
<rect x="620" y="30" width="11" height="11" rx="2" class="c l0" style="animation-delay:0.756s"/>
<rect x="620" y="44" width="11" height="11" rx="2" class="c l0" style="animation-delay:0.760s"/>
<rect x="620" y="58" width="11" height="11" rx="2" class="c l0" style="animation-delay:0.764s"/>
<rect x="620" y="72" width="11" height="11" rx="2" class="c l0" style="animation-delay:0.768s"/>
<rect x="620" y="86" width="11" height="11" rx="2" class="c l0" style="animation-delay:0.772s"/>
<rect x="620" y="100" width="11" height="11" rx="2" class="c l0" style="animation-delay:0.776s"/>
<rect x="620" y="114" width="11" height="11" rx="2" class="c l0" style="animation-delay:0.780s"/>
<rect x="634" y="30" width="11" height="11" rx="2" class="c l0" style="animation-delay:0.774s"/>
<rect x="634" y="44" width="11" height="11" rx="2" class="c l0" style="animation-delay:0.778s"/>
<rect x="634" y="58" width="11" height="11" rx="2" class="c l0" style="animation-delay:0.782s"/>
<rect x="634" y="72" width="11" height="11" rx="2" class="c l0" style="animation-delay:0.786s"/>
<rect x="634" y="86" width="11" height="11" rx="2" class="c l0" style="animation-delay:0.790s"/>
<rect x="634" y="100" width="11" height="11" rx="2" class="c l0" style="animation-delay:0.794s"/>
<rect x="634" y="114" width="11" height="11" rx="2" class="c l0" style="animation-delay:0.798s"/>
<rect x="648" y="30" width="11" height="11" rx="2" class="c l0" style="animation-delay:0.792s"/>
<rect x="648" y="44" width="11" height="11" rx="2" class="c l0" style="animation-delay:0.796s"/>
<rect x="648" y="58" width="11" height="11" rx="2" class="c l0" style="animation-delay:0.800s"/>
<rect x="648" y="72" width="11" height="11" rx="2" class="c l0" style="animation-delay:0.804s"/>
<rect x="648" y="86" width="11" height="11" rx="2" class="c l0" style="animation-delay:0.808s"/>
<rect x="648" y="100" width="11" height="11" rx="2" class="c l0" style="animation-delay:0.812s"/>
<rect x="648" y="114" width="11" height="11" rx="2" class="c l0" style="animation-delay:0.816s"/>
<rect x="662" y="30" width="11" height="11" rx="2" class="c l0" style="animation-delay:0.810s"/>
<rect x="662" y="44" width="11" height="11" rx="2" class="c l0" style="animation-delay:0.814s"/>
<rect x="662" y="58" width="11" height="11" rx="2" class="c l0" style="animation-delay:0.818s"/>
<rect x="662" y="72" width="11" height="11" rx="2" class="c l0" style="animation-delay:0.822s"/>
<rect x="662" y="86" width="11" height="11" rx="2" class="c l0" style="animation-delay:0.826s"/>
<rect x="662" y="100" width="11" height="11" rx="2" class="c l0" style="animation-delay:0.830s"/>
<rect x="662" y="114" width="11" height="11" rx="2" class="c l0" style="animation-delay:0.834s"/>
<rect x="676" y="30" width="11" height="11" rx="2" class="c l0" style="animation-delay:0.828s"/>
<rect x="676" y="44" width="11" height="11" rx="2" class="c l0" style="animation-delay:0.832s"/>
<rect x="676" y="58" width="11" height="11" rx="2" class="c l0" style="animation-delay:0.836s"/>
<rect x="676" y="72" width="11" height="11" rx="2" class="c l0" style="animation-delay:0.840s"/>
<rect x="676" y="86" width="11" height="11" rx="2" class="c l0" style="animation-delay:0.844s"/>
<rect x="676" y="100" width="11" height="11" rx="2" class="c l0" style="animation-delay:0.848s"/>
<rect x="676" y="114" width="11" height="11" rx="2" class="c l0" style="animation-delay:0.852s"/>
<rect x="690" y="30" width="11" height="11" rx="2" class="c l1" style="animation-delay:0.846s"/>
<rect x="690" y="44" width="11" height="11" rx="2" class="c l0" style="animation-delay:0.850s"/>
<rect x="690" y="58" width="11" height="11" rx="2" class="c l0" style="animation-delay:0.854s"/>
<rect x="690" y="72" width="11" height="11" rx="2" class="c l0" style="animation-delay:0.858s"/>
<rect x="690" y="86" width="11" height="11" rx="2" class="c l0" style="animation-delay:0.862s"/>
<rect x="690" y="100" width="11" height="11" rx="2" class="c l0" style="animation-delay:0.866s"/>
<rect x="690" y="114" width="11" height="11" rx="2" class="c l2" style="animation-delay:0.870s"/>
<rect x="704" y="30" width="11" height="11" rx="2" class="c l0" style="animation-delay:0.864s"/>
<rect x="704" y="44" width="11" height="11" rx="2" class="c l0" style="animation-delay:0.868s"/>
<rect x="704" y="58" width="11" height="11" rx="2" class="c l0" style="animation-delay:0.872s"/>
<rect x="704" y="72" width="11" height="11" rx="2" class="c l0" style="animation-delay:0.876s"/>
<rect x="704" y="86" width="11" height="11" rx="2" class="c l0" style="animation-delay:0.880s"/>
<rect x="704" y="100" width="11" height="11" rx="2" class="c l0" style="animation-delay:0.884s"/>
<rect x="704" y="114" width="11" height="11" rx="2" class="c l0" style="animation-delay:0.888s"/>
<rect x="718" y="30" width="11" height="11" rx="2" class="c l0" style="animation-delay:0.882s"/>
<rect x="718" y="44" width="11" height="11" rx="2" class="c l0" style="animation-delay:0.886s"/>
<rect x="718" y="58" width="11" height="11" rx="2" class="c l1" style="animation-delay:0.890s"/>
<rect x="718" y="72" width="11" height="11" rx="2" class="c l1" style="animation-delay:0.894s"/>
<rect x="718" y="86" width="11" height="11" rx="2" class="c l1" style="animation-delay:0.898s"/>
<rect x="718" y="100" width="11" height="11" rx="2" class="c l0" style="animation-delay:0.902s"/>
<rect x="718" y="114" width="11" height="11" rx="2" class="c l1" style="animation-delay:0.906s"/>
<rect x="732" y="30" width="11" height="11" rx="2" class="c l1" style="animation-delay:0.900s"/>
<rect x="732" y="44" width="11" height="11" rx="2" class="c l1" style="animation-delay:0.904s"/>
<rect x="732" y="58" width="11" height="11" rx="2" class="c l0" style="animation-delay:0.908s"/>
<rect x="732" y="72" width="11" height="11" rx="2" class="c l1" style="animation-delay:0.912s"/>
<rect x="732" y="86" width="11" height="11" rx="2" class="c l0" style="animation-delay:0.916s"/>
<rect x="732" y="100" width="11" height="11" rx="2" class="c l3" style="animation-delay:0.920s"/>
<rect x="732" y="114" width="11" height="11" rx="2" class="c l0" style="animation-delay:0.924s"/>
<rect x="746" y="30" width="11" height="11" rx="2" class="c l2" style="animation-delay:0.918s"/>
<rect x="746" y="44" width="11" height="11" rx="2" class="c l0" style="animation-delay:0.922s"/>
<rect x="746" y="58" width="11" height="11" rx="2" class="c l1" style="animation-delay:0.926s"/>
<rect x="746" y="72" width="11" height="11" rx="2" class="c l1" style="animation-delay:0.930s"/>
<rect x="746" y="86" width="11" height="11" rx="2" class="c l2" style="animation-delay:0.934s"/>
<rect x="746" y="100" width="11" height="11" rx="2" class="c l4" style="animation-delay:0.938s"/>
<rect x="746" y="114" width="11" height="11" rx="2" class="c l4" style="animation-delay:0.942s"/>
<rect x="760" y="30" width="11" height="11" rx="2" class="c l4" style="animation-delay:0.936s"/>
<rect x="760" y="44" width="11" height="11" rx="2" class="c l1" style="animation-delay:0.940s"/>
<rect x="760" y="58" width="11" height="11" rx="2" class="c l2" style="animation-delay:0.944s"/>
<rect x="760" y="72" width="11" height="11" rx="2" class="c l0" style="animation-delay:0.948s"/>
<text x="32" y="154" class="stat">106 contributions in the last year&#160;&#160;&#183;&#160;&#160;current streak 8d&#160;&#160;&#183;&#160;&#160;longest 8d</text>
<text x="604" y="154">Less</text>
<rect x="638" y="144" width="11" height="11" rx="2" class="l0"/>
<rect x="652" y="144" width="11" height="11" rx="2" class="l1"/>
<rect x="666" y="144" width="11" height="11" rx="2" class="l2"/>
<rect x="680" y="144" width="11" height="11" rx="2" class="l3"/>
<rect x="694" y="144" width="11" height="11" rx="2" class="l4"/>
<text x="712" y="154">More</text>
</svg>